<svg width="340" height="284" viewBox="0 0 340 284" fill="none" xmlns="http://www.w3.org/2000/svg">
<path d="M169.424 124.424C192.197 124.424 210.658 106.801 210.658 85.0609C210.658 63.3216 192.197 45.6981 169.424 45.6981C146.651 45.6981 128.19 63.3216 128.19 85.0609C128.19 106.801 146.651 124.424 169.424 124.424Z" fill="#FFD600"/>
<path d="M336.641 22.2286L182.797 276.637C176.87 286.454 161.978 286.454 156.001 276.637L2.15725 22.2286C-5.74512 9.17204 9.60361 -5.48021 23.2808 2.06357L100.329 44.5213C108.333 48.9219 112.487 57.9165 109.954 66.3789C107.725 73.9229 106.965 82.047 108.13 90.5096C111.777 117.155 134.522 138.383 162.535 141.285C199.818 145.154 231.326 117.348 231.326 82.5791C231.326 77.2115 230.566 71.9888 229.148 67.0559C226.666 58.3035 230.313 49.067 238.519 44.5697L315.618 2.06357C329.245 -5.48021 344.543 9.1237 336.641 22.2286Z" fill="url(#paint0_linear_3995_8469)"/>
<defs>
<linearGradient id="paint0_linear_3995_8469" x1="81.0499" y1="20.4395" x2="235.383" y2="259.213" gradientUnits="userSpaceOnUse">
<stop stop-color="#EF1262"/>
<stop offset="1" stop-color="#4361EE"/>
</linearGradient>
</defs>
</svg>
